<?xml version="1.0" encoding="utf-8"?>
<!-- Generator: Adobe Illustrator 23.0.2, SVG Export Plug-In . SVG Version: 6.00 Build 0)  -->
<svg version="1.1" id="Calque_1" xmlns="http://www.w3.org/2000/svg" xmlns:xlink="http://www.w3.org/1999/xlink" x="0px" y="0px"
	 viewBox="0 0 200 200" style="enable-background:new 0 0 200 200;" xml:space="preserve">
<style type="text/css">
	.st0{fill:#CDCCCC;}
	.st1{fill:#F0ECEC;stroke:#CDCCCC;stroke-miterlimit:10;}
	.st2{fill:#F0ECEC;stroke:#CDCCCC;stroke-width:15;stroke-miterlimit:10;}
</style>
<title>Plan de travail 1</title>
<path class="st0" d="M200,100c0,55.2-44.8,99.9-100,99.9S0,155.2,0,100C0,44.8,44.8,0.1,100,0.1c55-0.2,99.8,44.2,100,99.1
	C200,99.5,200,99.7,200,100z"/>
<path class="st1" d="M168.6,149.7c0,2.4-0.1,4.9-0.4,7.3c-39.5,36.7-99.4,34.8-136.7-4.4c0-1,0-2,0-3.1c0.3-25.2,13.7-48.1,35-59.6
	c21.1-11.8,46.3-11.8,67.4,0C155,101.6,168.4,124.6,168.6,149.7z"/>
<ellipse class="st2" cx="100" cy="78" rx="41.7" ry="41.1"/>
</svg>
